<?xml version="1.0" encoding="utf-8"?>
<!-- Generator: Adobe Illustrator 16.0.0, SVG Export Plug-In . SVG Version: 6.00 Build 0)  -->
<!DOCTYPE svg PUBLIC "-//W3C//DTD SVG 1.1//EN" "http://www.w3.org/Graphics/SVG/1.1/DTD/svg11.dtd">
<svg version="1.1" id="Слой_1" xmlns="http://www.w3.org/2000/svg" xmlns:xlink="http://www.w3.org/1999/xlink" x="0px" y="0px"
	 width="141.73px" height="141.73px" viewBox="0 0 141.73 141.73" enable-background="new 0 0 141.73 141.73" xml:space="preserve">
<path fill="#94BE00" d="M136,75.73c-1.981-0.129-3.964-0.369-5.945-0.371c-31.477-0.023-62.952-0.11-94.427,0.085
	c-4.706,0.028-6.913-1.11-6.157-6.055c0.497-3.263-0.829-4.764-4.297-5.144c-4.358-0.478-8.642-1.656-12.843-2.993
	c9.902-0.862,19.804-1.727,29.706-2.59c0.057-0.375,0.113-0.749,0.169-1.123c-9.417-1.451-18.835-2.901-28.252-4.354
	c-0.032-0.22-0.063-0.438-0.097-0.658c9.503-0.972,19.006-1.942,28.51-2.914c0.034-0.365,0.067-0.731,0.101-1.097
	c-9.766-1.369-19.53-2.737-29.296-4.106c-0.007-0.13-0.014-0.259-0.021-0.389c3.479-0.385,6.974-0.676,10.436-1.183
	c2.868-0.419,5.764-0.462,7.152-4.175c0.506-1.354,3.532-2.475,5.42-2.493c18.484-0.183,36.97-0.022,55.456-0.159
	c6.097-0.047,6.884,4.013,7.29,8.438c0.481,0.215,0.813,0.511,1.079,0.461c9.714-1.823,15.887,3.612,21.736,10.207
	c4.514,5.089,9.503,9.756,14.279,14.611C136,71.73,136,73.73,136,75.73z M125.324,67.855c0.268-0.593,0.534-1.187,0.802-1.779
	c-5.392-5.047-10.61-10.298-16.255-15.047c-2.442-2.056-5.106-0.371-5.221,2.896c-0.12,3.479-0.244,6.982,0.093,10.432
	c0.12,1.233,1.533,3.299,2.438,3.344C113.216,68,119.273,67.855,125.324,67.855z"/>
<path fill="#94BE00" d="M136,91.73c-2.194,0.914-4.327,2.07-6.604,2.677c-2.608,0.693-4.1-0.534-5.153-3.208
	c-2.244-5.692-7.091-8.501-12.899-8.53c-5.604-0.027-10.431,2.61-12.67,8.087c-1.226,2.997-2.84,3.897-5.932,3.789
	c-6.481-0.226-12.987,0.135-19.458-0.21c-1.646-0.087-3.949-1.54-4.663-2.997c-2.708-5.522-7.146-8.557-12.938-8.657
	c-6.031-0.105-11.079,2.781-13.222,8.751c-1.507,4.199-4.749,3.383-7.313,2.824c-1.965-0.427-3.567-2.627-5.254-4.124
	c-0.294-0.261-0.233-0.944-0.298-1.438c-1.226-9.264-0.636-9.946,8.563-9.947C70.772,78.74,103.386,78.735,136,78.73
	C136,83.063,136,87.397,136,91.73z"/>
<path fill="#94BE00" d="M111.503,86.824c5.629,0.056,10.169,4.588,10.147,10.131c-0.021,5.33-4.902,10.299-10.194,10.374
	c-5.563,0.08-10.328-4.894-10.218-10.666C101.348,90.911,105.672,86.766,111.503,86.824z M110.235,103.096
	c0.776-0.003,1.554-0.006,2.33-0.009c1.425-2.037,3.723-3.938,4.062-6.144c0.469-3.047-1.716-5.395-5.091-5.446
	c-3.565-0.055-5.978,2.253-5.535,5.549C106.291,99.214,108.748,101.09,110.235,103.096z"/>
<path fill="#94BE00" d="M55.537,86.824c5.696,0.037,10.114,4.43,10.136,10.078c0.021,5.422-4.696,10.301-10.075,10.42
	c-5.534,0.123-10.399-4.883-10.313-10.608C45.372,91.009,49.749,86.787,55.537,86.824z M54.063,103.066
	c0.775,0.015,1.552,0.03,2.328,0.045c1.531-1.979,4.388-4.063,4.24-5.907c-0.16-2.029-2.788-4.935-4.869-5.496
	c-3.358-0.904-5.973,1.867-5.678,5.148C50.28,99.028,52.66,101.002,54.063,103.066z"/>
<path fill="#94BE00" d="M110.235,103.096c-1.487-2.007-3.944-3.883-4.234-6.05c-0.441-3.296,1.97-5.604,5.535-5.549
	c3.375,0.053,5.56,2.399,5.091,5.446c-0.339,2.204-2.637,4.105-4.062,6.144C111.789,103.091,111.012,103.094,110.235,103.096z"/>
<path fill="#94BE00" d="M54.063,103.066c-1.402-2.063-3.783-4.038-3.979-6.21c-0.295-3.281,2.319-6.055,5.678-5.148
	c2.081,0.563,4.709,3.467,4.869,5.496c0.146,1.846-2.709,3.929-4.24,5.907C55.615,103.096,54.838,103.081,54.063,103.066z"/>
</svg>
