<?xml version="1.0" encoding="utf-8"?>
<!-- Generator: Adobe Illustrator 16.0.0, SVG Export Plug-In . SVG Version: 6.00 Build 0)  -->
<!DOCTYPE svg PUBLIC "-//W3C//DTD SVG 1.1//EN" "http://www.w3.org/Graphics/SVG/1.1/DTD/svg11.dtd">
<svg version="1.1" id="Слой_1" xmlns="http://www.w3.org/2000/svg" xmlns:xlink="http://www.w3.org/1999/xlink" x="0px" y="0px"
	 width="141.73px" height="141.73px" viewBox="0 0 141.73 141.73" enable-background="new 0 0 141.73 141.73" xml:space="preserve">
<g>
	<path fill="#94BE00" d="M8,30.73c2.483-4.217,5.419-7.644,11.051-6.401c1.786,8.504,4.352,11.758,9.125,11.635
		c4.671-0.121,7.089-3.283,8.78-11.646c15.365,0,30.774,0,46.134,0c1.579,8.449,4.407,11.929,9.301,11.645
		c4.857-0.28,7.35-3.664,8.269-11.229c6.203-1.261,10.767,1.769,10.925,7.856c0.262,9.979,0.07,19.97,0.07,30.382
		c-2.411,0-4.6,0-7.296,0c0-5.017,0-9.944,0-15.213c-29.697,0-58.898,0-88.683,0c0,4.51,0,8.795,0,13.08
		c0,12.663,0.161,25.33-0.089,37.989c-0.084,4.235,1.352,5.369,5.427,5.307c13.969-0.214,27.943-0.081,42.285-0.081
		c0,2.421,0,4.496,0,7.351c-1.998,0-4.085,0-6.173,0c-12.164,0-24.334-0.237-36.488,0.104c-5.809,0.163-10.032-1.513-12.638-6.777
		C8,80.063,8,55.397,8,30.73z"/>
	<path fill="#94BE00" d="M100,135.73c-5.199-2.433-10.949-4.112-15.49-7.441c-11.325-8.303-14.979-22.841-9.989-36.185
		c4.476-11.976,17.47-20.5,30.541-20.036c13.479,0.479,25.234,9.575,29.166,22.541c0.522,1.728,1.179,3.415,1.772,5.121
		c0,2.667,0,5.333,0,8c-0.591,1.696-1.246,3.375-1.761,5.095c-2.388,7.973-7.19,14.145-14.4,18.146
		c-3.689,2.048-7.877,3.201-11.839,4.76C105.333,135.73,102.667,135.73,100,135.73z M128.288,103.518
		c-0.127-13.113-11.279-24.129-24.375-24.076c-13.11,0.053-24.179,11.143-24.201,24.25c-0.022,13.294,11.353,24.531,24.625,24.326
		C117.464,127.816,128.415,116.613,128.288,103.518z"/>
	<path fill="#94BE00" d="M108,135.73c3.962-1.559,8.148-2.712,11.839-4.76c7.21-4.003,12.014-10.174,14.4-18.146
		c0.515-1.72,1.17-3.397,1.761-5.095c0,9.333,0,18.667,0,28C126.667,135.73,117.333,135.73,108,135.73z"/>
	<path fill="#94BE00" d="M30,7.73c0.494,6.964,1.125,13.925,1.311,20.896c0.022,0.874-2.266,2.414-3.574,2.521
		c-0.997,0.082-3.095-1.648-3.067-2.521C24.892,21.655,25.506,14.694,26,7.73C27.333,7.73,28.667,7.73,30,7.73z"/>
	<path fill="#94BE00" d="M94,7.73c0.494,6.964,1.126,13.925,1.311,20.896c0.022,0.874-2.266,2.414-3.574,2.521
		c-0.997,0.082-3.095-1.648-3.067-2.521C88.892,21.655,89.506,14.694,90,7.73C91.333,7.73,92.667,7.73,94,7.73z"/>
	<path fill="#94BE00" d="M24.735,56.333c4.864,0,9.579,0,14.618,0c0,4.901,0,9.617,0,14.705c-4.77,0-9.485,0-14.618,0
		C24.735,66.287,24.735,61.453,24.735,56.333z"/>
	<path fill="#94BE00" d="M48.657,56.254c4.981,0,9.58,0,14.599,0c0,4.899,0,9.734,0,14.863c-4.834,0-9.55,0-14.599,0
		C48.657,66.243,48.657,61.527,48.657,56.254z"/>
	<path fill="#94BE00" d="M72.765,56.263c5.016,0,9.613,0,14.561,0c0,4.916,0,9.633,0,14.747c-4.68,0-9.396,0-14.561,0
		C72.765,66.342,72.765,61.509,72.765,56.263z"/>
	<path fill="#94BE00" d="M39.48,80.383c0,4.994,0,9.593,0,14.606c-4.913,0-9.748,0-14.872,0c0-4.846,0-9.563,0-14.606
		C29.499,80.383,34.214,80.383,39.48,80.383z"/>
	<path fill="#94BE00" d="M63.312,95.123c-5.007,0-9.723,0-14.711,0c0-4.996,0-9.712,0-14.748c4.912,0,9.627,0,14.711,0
		C63.312,85.153,63.312,89.869,63.312,95.123z"/>
	<path fill="#94BE00" d="M103.671,104.06c4.29,0,7.822-0.367,11.22,0.154c1.702,0.263,3.157,2.144,4.725,3.292
		c-1.585,1.298-3.064,3.521-4.774,3.716c-4.604,0.521-9.306,0.188-13.968,0.168c-3.085-0.014-4.545-1.642-4.541-4.679
		c0.005-4.663-0.302-9.355,0.163-13.972c0.165-1.639,2.196-3.089,3.375-4.625c1.269,1.615,3.321,3.094,3.632,4.876
		C104.088,96.353,103.671,99.889,103.671,104.06z"/>
</g>
</svg>
