<?xml version="1.0" encoding="utf-8"?>
<!-- Generator: Adobe Illustrator 16.0.0, SVG Export Plug-In . SVG Version: 6.00 Build 0)  -->
<!DOCTYPE svg PUBLIC "-//W3C//DTD SVG 1.1//EN" "http://www.w3.org/Graphics/SVG/1.1/DTD/svg11.dtd">
<svg version="1.1" id="Слой_1" xmlns="http://www.w3.org/2000/svg" xmlns:xlink="http://www.w3.org/1999/xlink" x="0px" y="0px"
	 width="141.73px" height="141.73px" viewBox="0 0 141.73 141.73" enable-background="new 0 0 141.73 141.73" xml:space="preserve">
<g>
	<path fill="#94BE00" d="M136,104.73c-11.373,8.323-22.615,16.837-34.223,24.818c-2.497,1.719-6.299,2.024-9.521,2.109
		c-9.813,0.261-19.646-0.128-29.458,0.167c-7.799,0.234-13.73-4.477-20.579-6.712c-9.8-3.199-13.038-9.042-11.965-19.167
		c0.995-9.382,0.44-18.961,0.113-28.438c-0.156-4.533,1.493-5.328,5.719-5.579c9.975-0.595,18.851,1.642,26.416,8.181
		c6.823,5.896,14.576,8.155,23.455,7.01c1.635-0.211,3.344-0.146,4.984,0.062c4.426,0.558,7.129,3.597,6.855,7.679
		c-0.295,4.399-2.916,6.674-7.144,6.747c-9.817,0.171-19.638,0.104-29.458,0.172c-1.822,0.012-3.857-0.255-5.4,0.458
		c-1.339,0.619-2.782,2.371-2.931,3.756c-0.108,1.005,1.627,2.674,2.898,3.236c1.427,0.632,3.256,0.447,4.91,0.452
		c11.318,0.029,22.645,0.23,33.952-0.112c3.485-0.106,7.163-1.242,10.332-2.775c5.823-2.817,11.32-6.308,16.981-9.469
		c6.887-3.847,8.956-3.473,14.059,2.406C136,101.397,136,103.063,136,104.73z"/>
	<path fill="#94BE00" d="M8,66.73c3.591-0.38,7.398-1.682,10.717-0.901c3.905,0.918,4.058,5.044,4.037,8.694
		c-0.068,13.099-0.592,26.23,0.162,39.287c0.551,9.533-7.467,13.08-14.917,8.92C8,104.063,8,85.397,8,66.73z"/>
	<path fill="#94BE00" d="M72.094,12.038c10.198,0.034,18.681,8.714,18.519,18.951c-0.158,9.965-8.765,18.409-18.705,18.353
		c-9.953-0.057-18.475-8.589-18.518-18.54C53.345,20.55,61.864,12.003,72.094,12.038z"/>
	<path fill="#94BE00" d="M112.919,64.26c0.094,8.325-6.482,15.076-14.691,15.081c-7.836,0.006-14.702-6.757-14.837-14.609
		c-0.141-8.19,6.548-14.907,14.852-14.915C106.474,49.808,112.827,56.061,112.919,64.26z"/>
</g>
</svg>
