<?xml version="1.0" encoding="utf-8"?>
<!-- Generator: Adobe Illustrator 16.0.0, SVG Export Plug-In . SVG Version: 6.00 Build 0)  -->
<!DOCTYPE svg PUBLIC "-//W3C//DTD SVG 1.1//EN" "http://www.w3.org/Graphics/SVG/1.1/DTD/svg11.dtd">
<svg version="1.1" id="Слой_1" xmlns="http://www.w3.org/2000/svg" xmlns:xlink="http://www.w3.org/1999/xlink" x="0px" y="0px"
	 width="141.73px" height="141.73px" viewBox="0 0 141.73 141.73" enable-background="new 0 0 141.73 141.73" xml:space="preserve">
<path fill="#94BE00" d="M8,67.73c2.544-6.246,4.032-13.238,7.822-18.606c13.807-19.557,39.303-22.982,57.706-7.369
	c10.712,9.091,19.925,19.946,30.367,30.571c-11.255,10.691-21.752,22.466-34.03,31.931C48.124,121.02,15.313,107.37,9.282,79.975
	C8.965,78.536,8.432,77.144,8,75.73C8,73.063,8,70.397,8,67.73z M48.307,51.264C36.512,51.294,27.46,60.26,27.332,72.04
	c-0.13,11.845,9.193,21.15,21.149,21.111c11.788-0.039,20.864-9.069,20.899-20.793C69.419,60.286,60.374,51.232,48.307,51.264z"/>
<path fill="#94BE00" d="M136,46.73c-1.229,0.729-2.462,1.459-3.853,2.283c-1.437-1.264-2.911-2.562-4.496-3.954
	c-6.411,6.888-12.704,13.647-19.117,20.538c-2.318-1.938-3.274-2.737-3.913-3.271c7.873-7.811,15.597-15.472,23.378-23.19
	c2.25,1.854,5.126,4.226,8.001,6.596C136,46.063,136,46.397,136,46.73z"/>
<path fill="#94BE00" d="M35.67,72.483c3.944,3.459,5.944,9.428,10.417,5.474c4.077-3.603-1.186-6.49-3.343-9.972
	c2.971-2.33,5.995-4.702,9.04-7.09c3.032,3.088,5.791,5.897,8.707,8.869c-1.139,2.735-2.724,2.968-4.821,0.521
	c-0.753-0.879-1.493-1.923-2.477-2.407c-0.96-0.474-2.226-0.328-3.356-0.454c0.074,1.111-0.224,2.442,0.282,3.302
	c3.314,5.635,3.415,8.598-0.332,11.355c-3.514,2.588-7.222,2.083-10.553-0.485c-1.545-1.192-3.055-2.655-3.992-4.325
	C34.723,76.344,35.416,74.738,35.67,72.483z"/>
</svg>
